<svg viewBox="310 725 1870 295" xmlns="http://www.w3.org/2000/svg" fill="currentColor" style="fill-rule:evenodd;clip-rule:evenodd;stroke-linejoin:round;stroke-miterlimit:2;">
  <g id="Char-V" transform="matrix(1,0,0,1,-99.275939,388.924668)" data-motion="outline-fill" data-motion-delay="0.00">
    <g class="stroke-layer"><path d="M538.1,606.924l44,0l90.667,-243.667l-44.333,0l-52.667,140.333c-4.667,12.333 -9.667,27.333 -15.667,48.667c-5.333,-19.667 -10,-34 -15.333,-48.667l-53.333,-140.333l-45.333,0l92,243.667Z" style="fill-rule:nonzero;"/></g>
    <g class="fill-layer"><path d="M538.1,606.924l44,0l90.667,-243.667l-44.333,0l-52.667,140.333c-4.667,12.333 -9.667,27.333 -15.667,48.667c-5.333,-19.667 -10,-34 -15.333,-48.667l-53.333,-140.333l-45.333,0l92,243.667Z" style="fill-rule:nonzero;"/></g>
  </g>
  <g id="Char-I" transform="matrix(1,0,0,1,-99.275939,387.924668)" data-motion="outline-fill" data-motion-delay="0.07">
    <g class="stroke-layer"><rect x="703.1" y="363.258" width="42.667" height="243.667" style="fill-rule:nonzero;"/></g>
    <g class="fill-layer"><rect x="703.1" y="363.258" width="42.667" height="243.667" style="fill-rule:nonzero;"/></g>
  </g>
  <g id="Char-S" transform="matrix(1,0,0,1,-99.275939,388.924668)" data-motion="outline-fill" data-motion-delay="0.14">
    <g class="stroke-layer"><path d="M785.767,431.258c0,37.333 21.667,61 63,70l38.667,8.667c20,4.333 28.333,14 28.333,30.333c0,20.333 -18,32.667 -46.333,32.667c-27.333,0 -44,-12.333 -44.333,-33l-42.667,0c1,43.667 35,71.333 87,71.333c53.667,0 89,-29.333 89,-74.667c0,-36.333 -20.333,-57.667 -62,-66.667l-38.333,-8.333c-20.333,-4.667 -29.667,-14.333 -29.667,-31.667c0,-20.333 17,-33 43.333,-33c24,0 39,12.333 40,33.333l42.667,0c-1.333,-44 -32.667,-71.333 -82,-71.333c-51.333,0 -86.667,29.667 -86.667,72.333Z" style="fill-rule:nonzero;"/></g>
    <g class="fill-layer"><path d="M785.767,431.258c0,37.333 21.667,61 63,70l38.667,8.667c20,4.333 28.333,14 28.333,30.333c0,20.333 -18,32.667 -46.333,32.667c-27.333,0 -44,-12.333 -44.333,-33l-42.667,0c1,43.667 35,71.333 87,71.333c53.667,0 89,-29.333 89,-74.667c0,-36.333 -20.333,-57.667 -62,-66.667l-38.333,-8.333c-20.333,-4.667 -29.667,-14.333 -29.667,-31.667c0,-20.333 17,-33 43.333,-33c24,0 39,12.333 40,33.333l42.667,0c-1.333,-44 -32.667,-71.333 -82,-71.333c-51.333,0 -86.667,29.667 -86.667,72.333Z" style="fill-rule:nonzero;"/></g>
  </g>
  <g id="Char-U1" transform="matrix(1,0,0,1,-99.275939,388.924668)" data-motion="outline-fill" data-motion-delay="0.21">
    <g class="stroke-layer"><path d="M995.433,517.924c0,57.333 37.333,93 96.333,93c59.333,0 96.667,-36 96.667,-93l0,-154.667l-42.667,0l0,152c0,34.667 -19.333,54.333 -54,54.333c-34.667,0 -53.667,-19.333 -53.667,-54.333l0,-152l-42.667,0l0,154.667Z" style="fill-rule:nonzero;"/></g>
    <g class="fill-layer"><path d="M995.433,517.924c0,57.333 37.333,93 96.333,93c59.333,0 96.667,-36 96.667,-93l0,-154.667l-42.667,0l0,152c0,34.667 -19.333,54.333 -54,54.333c-34.667,0 -53.667,-19.333 -53.667,-54.333l0,-152l-42.667,0l0,154.667Z" style="fill-rule:nonzero;"/></g>
  </g>
  <g id="Char-A" transform="matrix(1,0,0,1,-99.275939,388.924668)" data-motion="outline-fill" data-motion-delay="0.28">
    <g class="stroke-layer"><path d="M1251.767,606.924l19.667,-56.333l91,0l19.667,56.333l45,0l-88,-243.667l-43.667,0l-88,243.667l44.333,0Zm60,-171c2.333,-6.667 4.333,-14 5.333,-18.667c0.667,5 3,12.333 5,18.667l28,78.667l-66,0l27.667,-78.667Z" style="fill-rule:nonzero;"/></g>
    <g class="fill-layer"><path d="M1251.767,606.924l19.667,-56.333l91,0l19.667,56.333l45,0l-88,-243.667l-43.667,0l-88,243.667l44.333,0Zm60,-171c2.333,-6.667 4.333,-14 5.333,-18.667c0.667,5 3,12.333 5,18.667l28,78.667l-66,0l27.667,-78.667Z" style="fill-rule:nonzero;"/></g>
  </g>
  <g id="Char-1" transform="matrix(1,0,0,1,-99.275939,388.924668)" data-motion="outline-fill" data-motion-delay="0.35">
    <g class="stroke-layer"><path d="M1495.433,401.591l0,205.333l41,0l0,-243.667l-94.333,0l0,38.333l53.333,0Z" style="fill-rule:nonzero;"/></g>
    <g class="fill-layer"><path d="M1495.433,401.591l0,205.333l41,0l0,-243.667l-94.333,0l0,38.333l53.333,0Z" style="fill-rule:nonzero;"/></g>
  </g>
  <g id="Char-H" transform="matrix(1,0,0,1,-99.275939,388.924668)" data-motion="outline-fill" data-motion-delay="0.42">
    <g class="stroke-layer"><path d="M1633.1,606.924l0,-103.333l108,0l0,103.333l42.667,0l0,-243.667l-42.667,0l0,100.667l-108,0l0,-100.667l-42.667,0l0,243.667l42.667,0Z" style="fill-rule:nonzero;"/></g>
    <g class="fill-layer"><path d="M1633.1,606.924l0,-103.333l108,0l0,103.333l42.667,0l0,-243.667l-42.667,0l0,100.667l-108,0l0,-100.667l-42.667,0l0,243.667l42.667,0Z" style="fill-rule:nonzero;"/></g>
  </g>
  <g id="Char-U2" transform="matrix(1,0,0,1,-99.275939,388.924668)" data-motion="outline-fill" data-motion-delay="0.49">
    <g class="stroke-layer"><path d="M1836.1,517.924c0,57.333 37.333,93 96.333,93c59.333,0 96.667,-36 96.667,-93l0,-154.667l-42.667,0l0,152c0,34.667 -19.333,54.333 -54,54.333c-34.667,0 -53.667,-19.333 -53.667,-54.333l0,-152l-42.667,0l0,154.667Z" style="fill-rule:nonzero;"/></g>
    <g class="fill-layer"><path d="M1836.1,517.924c0,57.333 37.333,93 96.333,93c59.333,0 96.667,-36 96.667,-93l0,-154.667l-42.667,0l0,152c0,34.667 -19.333,54.333 -54,54.333c-34.667,0 -53.667,-19.333 -53.667,-54.333l0,-152l-42.667,0l0,154.667Z" style="fill-rule:nonzero;"/></g>
  </g>
  <g id="Char-E" transform="matrix(1,0,0,1,-99.275939,388.924668)" data-motion="outline-fill" data-motion-delay="0.56">
    <g class="stroke-layer"><path d="M2232.767,606.924l0,-39.333l-108.667,0l0,-64.667l97.333,0l0,-37.667l-97.333,0l0,-62.667l108.667,0l0,-39.333l-151.333,0l0,243.667l151.333,0Z" style="fill-rule:nonzero;"/></g>
    <g class="fill-layer"><path d="M2232.767,606.924l0,-39.333l-108.667,0l0,-64.667l97.333,0l0,-37.667l-97.333,0l0,-62.667l108.667,0l0,-39.333l-151.333,0l0,243.667l151.333,0Z" style="fill-rule:nonzero;"/></g>
  </g>
</svg>
